<?xml version="1.0" standalone="no"?>
<!DOCTYPE svg PUBLIC "-//W3C//DTD SVG 20010904//EN"
 "http://www.w3.org/TR/2001/REC-SVG-20010904/DTD/svg10.dtd">
<svg version="1.0" xmlns="http://www.w3.org/2000/svg"
 width="512.000000pt" height="512.000000pt" viewBox="0 0 512.000000 512.000000"
 preserveAspectRatio="xMidYMid meet">
<metadata>
Created by potrace 1.11, written by Peter Selinger 2001-2013
</metadata>
<g transform="translate(0.000000,512.000000) scale(0.100000,-0.100000)"
fill="#000000" stroke="none">
<path d="M329 5097 c-155 -53 -278 -196 -312 -364 -9 -46 -12 -540 -11 -2194
l1 -2134 21 -66 c39 -119 121 -222 223 -282 100 -59 -36 -56 2304 -56 1916 -1
2157 1 2210 14 167 44 294 184 341 376 4 13 7 982 8 2153 1 1662 -2 2142 -11
2190 -38 186 -190 344 -362 376 -36 7 -784 10 -2200 10 l-2146 -1 -66 -22z"/>
</g>
</svg>
